<svg id="Layer_2" data-name="Layer 2" xmlns="http://www.w3.org/2000/svg" viewBox="0 -305.79 1628.77 1628.77">
  <defs>
    <style>
      .cls-1 {
        fill: #fff;
      }
    </style>
  </defs>
  <g id="logo">
    <g>
      <path class="cls-1" d="M339.32,711.16h1002.06c2.92,0,5.29-2.37,5.29-5.29V5.29c0-2.92-2.37-5.29-5.29-5.29H339.32c-2.92,0-5.29,2.37-5.29,5.29v700.59c0,2.92,2.37,5.29,5.29,5.29ZM402.63,442.11c.76-.36,1.58-.64,2.43-.82,98.49-33.68,159.43-98.29,159.43-169.5,0-29.63-10.35-58.07-30.76-84.53l-.19-.29c-.51-.91-.99-1.83-1.45-2.75-1.67-3.35-2.77-6.31-3.26-8.79-1.01-5.07.61-7.56,2.15-8.76,3.04-2.37,8.16-1.78,15.63,1.79,1.34.61,33.9,15.61,62.62,48.36,17.05,19.43,29.29,41.15,36.39,64.56,8.43,27.8,9.54,58.02,3.36,89.89,0,0,0,0,0,0,0,.04-.02.08-.02.11h.01c-.02.12-.04.23-.04.35,0,1.27,1.03,2.3,2.31,2.3.33,0,.65-.07.94-.2.07-.03.13-.07.2-.11.08-.04.15-.09.22-.14,11.05-6.57,45.38-32.85,51.8-108.33v-.09c4.12-48.63-4.4-107.85-25.32-176.04-.14-.38-.8-2.19-1.49-4.6-.72-2.48-1.62-6.13-1.81-9.39-.34-5.75,1.72-8.12,3.51-9.1,3.11-1.71,7.42-.52,13.16,3.62.93.6,12.62,8.22,29.28,22.06,15.9,13.22,39.74,35.02,62.99,63.78,21.45,26.53,38.91,54.57,51.9,83.33l.11.3c.09.31.23.62.41.91l.27.39c.72.91,1.79,1.43,2.94,1.44,1.15-.01,2.22-.53,2.94-1.44l.27-.39c.18-.29.31-.6.41-.91l.11-.3c12.99-28.76,30.45-56.8,51.9-83.33,23.25-28.75,47.09-50.55,62.99-63.78,16.65-13.85,28.34-21.46,29.28-22.06,5.75-4.14,10.05-5.33,13.16-3.62,1.79.98,3.85,3.36,3.51,9.1-.2,3.26-1.09,6.9-1.81,9.39-.69,2.41-1.35,4.21-1.49,4.6-20.92,68.18-29.44,127.41-25.33,176.04v.09c6.42,75.49,40.76,101.77,51.8,108.33.07.05.14.1.22.14.06.04.13.08.2.11.29.13.6.2.94.2,1.28,0,2.31-1.03,2.31-2.3,0-.12-.02-.23-.04-.35h.01s-.02-.08-.02-.11c0,0,0,0,0,0-6.18-31.87-5.06-62.09,3.37-89.89,7.1-23.41,19.34-45.14,36.39-64.56,28.73-32.75,61.29-47.75,62.62-48.36,7.47-3.57,12.59-4.16,15.63-1.79,1.54,1.2,3.17,3.7,2.16,8.76-.5,2.49-1.59,5.45-3.26,8.79-.45.91-.94,1.83-1.44,2.75l-.19.29c-20.41,26.46-30.76,54.9-30.76,84.53,0,71.21,60.94,135.83,159.43,169.5.85.17,1.66.45,2.43.82,3.58,1.7,6.07,5.33,6.07,9.56,0,5.61-4.37,10.18-9.88,10.55-.24.02-1.39.04-1.63.04-24.66-2.37-48.33-5.98-66.98-10.04-19.86-4.32-36.53-9.64-50.98-16.26-7.63-3.5-13.49-6.8-18.67-9.71-2.72-1.53-5.29-2.98-7.64-4.18-.15-.07-.29-.12-.42-.17-.3-.15-.64-.24-1-.24-1.24,0-2.24,1-2.24,2.24,0,.03,0,.06,0,.08,5.91,60.29,59.05,109.47,61.31,111.51l.1.09c4.13,3.75,5.82,7.27,5.03,10.44-.73,2.95-3.59,5.19-8.05,6.31-3.05.76-6.54,1.02-8.93,1.1-2.34.08-4.07.03-4.41.02-2.21,0-40.19-.02-88.41-16.95-28.95-10.17-55.58-24.2-79.15-41.7-29.73-22.07-54.58-49.7-73.84-82.09-.35-.56-.69-1.17-1.04-1.8-.92-1.67-1.59-2.62-3.51-4.69-1.48-1.57-2.95-1.37-3.42-1.16-.42.19-.73.94-.82,1.58-.08.58-.08,1.31,0,2.15.05.57.13.97.14,1.04,14.4,80.12,58,134.03,92.04,165.14,19.26,17.61,37.6,29.96,49.61,37.23,12.89,7.81,21.39,11.54,21.47,11.57l.23.12c7.38,4.22,10.82,8.21,10.51,12.19-.16,2.05-1.43,4.92-6.58,6.9-2.48.95-5.76,1.69-9.75,2.19-2.69.34-4.75.45-5.12.46-8.9.74-20.7-.36-35.06-3.26-10.65-2.16-18.89-4.57-18.97-4.6l-.1-.03c-44.6-15.4-82.97-38.02-114.06-67.26-24.76-23.28-44.95-50.75-60.01-81.63l-.07-.15c-.07-.17-.14-.33-.23-.49l-.21-.3c-.72-1.02-1.84-1.61-3.07-1.62-1.23.01-2.35.6-3.07,1.62l-.21.3c-.09.16-.17.32-.23.49l-.07.15c-15.06,30.89-35.25,58.35-60.01,81.63-31.09,29.23-69.47,51.86-114.06,67.25l-.1.03c-.08.03-8.32,2.44-18.97,4.6-14.37,2.91-26.16,4.01-35.06,3.26-.36-.01-2.43-.12-5.12-.46-4-.5-7.28-1.23-9.75-2.19-5.15-1.98-6.42-4.85-6.58-6.9-.3-3.97,3.13-7.96,10.51-12.19l.23-.12c.08-.04,8.59-3.76,21.47-11.57,12-7.26,30.35-19.62,49.61-37.23,34.04-31.12,77.65-85.02,92.04-165.14.01-.08.1-.47.14-1.04.09-.84.09-1.57,0-2.15-.09-.64-.4-1.39-.82-1.58-.47-.21-1.94-.41-3.42,1.16-1.93,2.07-2.59,3.02-3.51,4.69-.35.63-.69,1.24-1.04,1.8-19.26,32.38-44.11,60.02-73.84,82.09-23.57,17.5-50.2,31.53-79.15,41.7-48.22,16.93-86.2,16.95-88.41,16.95-.34.01-2.07.06-4.41-.02-2.39-.08-5.88-.34-8.93-1.1-4.46-1.12-7.31-3.36-8.05-6.31-.79-3.17.9-6.69,5.03-10.44l.1-.09c2.26-2.05,55.4-51.23,61.31-111.51,0-.03,0-.06,0-.09,0-1.24-1.01-2.24-2.25-2.24-.36,0-.69.09-1,.24-.13.05-.27.1-.42.17-2.35,1.2-4.92,2.65-7.64,4.18-5.17,2.92-11.03,6.22-18.67,9.71-14.45,6.61-31.12,11.93-50.98,16.26-18.66,4.06-42.32,7.67-66.98,10.04-.24,0-1.39-.02-1.62-.04-5.52-.36-9.88-4.94-9.88-10.55,0-4.23,2.48-7.87,6.07-9.56Z"/>
      <path class="cls-1" d="M886.04,821.8h-126.94c-12.37,0-22.43,10.35-22.43,23.07s10.06,23.07,22.43,23.07h41.04v126.17c0,12.72,10.06,23.07,22.43,23.07s22.43-10.35,22.43-23.07v-126.17h41.04c12.37,0,22.43-10.35,22.43-23.07s-10.06-23.07-22.43-23.07Z"/>
      <path class="cls-1" d="M1570.07,896.42h-54.4c-7.5,0-13.84-6.52-13.84-14.24s6.34-14.24,13.84-14.24h81.61c12.37,0,22.43-10.35,22.43-23.07s-10.06-23.07-22.43-23.07h-81.61c-32.37,0-58.7,27.09-58.7,60.38s26.33,60.38,58.7,60.38h54.4c7.5,0,13.84,6.52,13.84,14.24s-6.34,14.24-13.84,14.24h-90.67c-12.37,0-22.43,10.35-22.43,23.07s10.06,23.07,22.43,23.07h90.67c32.36,0,58.7-27.09,58.7-60.38s-26.33-60.38-58.7-60.38Z"/>
      <path class="cls-1" d="M701.74,867.94c12.37,0,22.43-10.35,22.43-23.07s-10.06-23.07-22.43-23.07h-108.81c-12.37,0-22.43,10.35-22.43,23.07v149.24c0,12.72,10.06,23.07,22.43,23.07h108.81c12.37,0,22.43-10.35,22.43-23.07s-10.06-23.07-22.43-23.07h-86.38v-28.48h86.38c12.37,0,22.43-10.35,22.43-23.07s-10.06-23.07-22.43-23.07h-86.38v-28.48h86.38Z"/>
      <path class="cls-1" d="M552.34,882.18c0-33.29-26.33-60.38-58.7-60.38h-90.67c-12.37,0-22.43,10.35-22.43,23.07v14.25c0,4.87,3.95,8.83,8.83,8.83h104.27c7.5,0,13.84,6.52,13.84,14.24s-6.34,14.24-13.84,14.24h-113.1v97.7c0,12.72,10.06,23.07,22.43,23.07s22.43-10.35,22.43-23.07v-51.55h22.83l65.84,67.73c3.97,4.38,9.74,6.89,15.84,6.89,12.37,0,22.43-10.35,22.43-23.07,0-6.29-2.44-12.22-6.7-16.3l-36.46-37.25c25.11-7.11,43.16-30.85,43.16-58.38Z"/>
      <path class="cls-1" d="M1439.8,882.18c0-33.29-26.33-60.38-58.7-60.38h-90.67c-12.37,0-22.43,10.35-22.43,23.07v14.25c0,4.87,3.95,8.83,8.83,8.83h104.27c7.5,0,13.84,6.52,13.84,14.24s-6.34,14.24-13.84,14.24h-113.1v97.7c0,12.72,10.06,23.07,22.43,23.07s22.43-10.35,22.43-23.07v-51.55h22.83l65.84,67.73c3.97,4.38,9.74,6.89,15.84,6.89,12.37,0,22.43-10.35,22.43-23.07,0-6.29-2.44-12.22-6.7-16.3l-36.46-37.25c25.11-7.11,43.16-30.85,43.16-58.38Z"/>
      <path class="cls-1" d="M1228.4,821.8c-12.37,0-22.43,10.35-22.43,23.07v83.95c0,23.28-18.41,42.22-41.04,42.22s-41.04-18.94-41.04-42.22v-83.95c0-12.72-10.06-23.07-22.43-23.07s-22.43,10.35-22.43,23.07v25.54c-16.48-29.05-47.1-48.62-82.09-48.62-52.36,0-94.97,43.83-94.97,97.69s42.6,97.69,94.97,97.69c38.9,0,72.41-24.19,87.07-58.71,11.87,34.18,43.66,58.71,80.92,58.71,47.36,0,85.9-39.64,85.9-88.37v-83.95c0-12.72-10.06-23.07-22.43-23.07ZM996.95,971.5c-28.72,0-52-23.28-52-52s23.28-52,52-52,52,23.28,52,52-23.28,52-52,52Z"/>
      <path class="cls-1" d="M266.85,821.8c-53.95,0-97.69,43.74-97.69,97.69s43.74,97.69,97.69,97.69,97.69-43.74,97.69-97.69-43.74-97.69-97.69-97.69ZM266.85,971.5c-28.72,0-52-23.28-52-52s23.28-52,52-52,52,23.28,52,52-23.28,52-52,52Z"/>
      <path class="cls-1" d="M149.37,971.04h-49.96c-28.72,0-53.72-22.83-53.72-51.55s25-51.55,53.72-51.55h49.96c12.37,0,22.43-10.35,22.43-23.07s-10.06-23.07-22.43-23.07h-51.67c-53.95,0-97.69,43.74-97.69,97.69s43.74,97.69,97.69,97.69h51.67c12.37,0,22.43-10.35,22.43-23.07s-10.06-23.07-22.43-23.07Z"/>
    </g>
  </g>
</svg>
