<?xml version="1.0" encoding="UTF-8"?>
<svg id="Layer_2" data-name="Layer 2" xmlns="http://www.w3.org/2000/svg" viewBox="0 0 341.93 151.96">
  <defs>
    <style>
      .cls-1 {
        fill: #fff;
      }
    </style>
  </defs>
  <g id="Layer_1-2" data-name="Layer 1">
    <path class="cls-1" d="M333.1,13.6c-8.31-9.28-22.39-13.6-44.32-13.6h-49.75c2.17,2.25,4.18,4.91,5.99,8.08,5.48,9.62,5.87,20.91,4.62,32.18h31.12c11.35,0,16.01,1.84,12.92,19.43l-5.34,30.45c-3.35,19.11-12.51,21.56-20.11,21.56h-121.31c2.12-8.8,5.56-9.48,19.96-12.36,4.87-.97,10.93-2.18,18.21-4.04,7.1-1.84,12.19-3.34,16.53-4.86,10.06-3.53,16.79-7.58,21.79-13.14,5.11-5.68,8.6-13.06,11.18-23.93,2.53-13.69,4.38-27.4-1.37-37.51-2.89-5.07-6.41-8.57-10.25-11-7.61-3.62-17.38-4.44-27.31-4.73l-4.26-.12v.06c-3.23-.06-6.44-.07-9.31-.07H26.66l-.57,3.26L.57,148.71l-.57,3.26h45.3l.57-3.26,8.5-48.45h37.19c4.22-13.11,12.66-28.47,29.51-36.47l.31-.14c.16-.07,1.38-.57,3.35-1.33l.07-.38h-63.7l3.86-21.99h59.85s1.63,0,1.63,0h9.92s17.44-.02,17.44-.02h3.26s16.51-.02,16.51-.02c1.88,0,3.63-.02,5.23-.04,1.34-.02,2.59-.03,3.73-.03h.8s.32,0,.32,0h.51c3.93,0,6.75.21,7.77,1.23.97.98,1.04,3.57.24,8.15-1.38,7.89-1.44,8.2-26.47,13.79-46.5,10.35-57.18,19.71-63.49,55.69l-5.26,30.01-.57,3.26h170.98c40.2,0,59.73-17.91,67.44-61.83l5.34-30.45c3.83-21.81,1.59-36.46-7.03-46.09Z"/>
  </g>
</svg>