<svg width="200" height="200" viewBox="0 0 200 200" fill="none" xmlns="http://www.w3.org/2000/svg">
<path d="M151.62 96.7032C151.62 96.7032 151.605 96.7089 151.598 96.7108C151.605 96.707 151.613 96.7051 151.62 96.7032Z" fill="#0073C6"/>
<path d="M151.592 96.7128C151.592 96.7128 151.594 96.7128 151.595 96.7128C151.595 96.7128 151.594 96.7128 151.592 96.7146V96.7128Z" fill="#0073C6"/>
<path d="M151.592 96.7146C151.592 96.7146 151.58 96.7184 151.575 96.7203C151.58 96.7184 151.586 96.7165 151.592 96.7146Z" fill="#0073C6"/>
<path d="M35.4353 95.6531C35.4353 95.6531 35.4296 95.6531 35.4258 95.6531C35.4258 95.6209 35.4258 95.5887 35.4258 95.5583C35.5338 95.6001 35.6438 95.6399 35.7518 95.6797C35.6969 95.6797 35.6438 95.6835 35.5907 95.6948C35.5376 95.6797 35.4864 95.6664 35.4334 95.655L35.4353 95.6531Z" fill="#0073C6"/>
<path d="M99.0974 118.464C98.7184 118.352 98.3414 118.234 97.9548 118.145C97.7066 118.086 97.4527 118.024 97.2026 118.075C96.8027 117.906 96.401 117.738 96.005 117.561C95.3532 117.273 94.7033 116.959 94.0306 116.72C93.8468 116.655 93.6479 116.659 93.4754 116.725C93.1912 116.612 92.9051 116.494 92.6171 116.386C92.3726 116.293 92.1301 116.193 91.8838 116.107C91.5673 115.997 91.2452 115.884 90.9174 115.817C90.6843 115.77 90.474 115.76 90.2391 115.795C89.8715 115.637 89.5058 115.478 89.142 115.319C88.1131 114.871 87.0842 114.433 86.0572 113.988C83.9084 113.055 81.7597 112.126 79.6072 111.194C75.3855 109.37 71.1676 107.539 66.9478 105.715C62.8095 103.926 58.675 102.133 54.5367 100.332C52.9261 99.6321 51.3174 98.9288 49.7068 98.2255C49.4718 98.1232 49.2369 98.0208 49.0019 97.9184C49.0019 98.0303 49.0019 98.144 49.0019 98.2559C48.9583 98.2426 48.9128 98.2274 48.8693 98.2142C48.8446 97.9981 48.7271 97.7971 48.5415 97.6682C48.3539 97.5393 48.1644 97.4142 47.956 97.3213C47.8063 97.255 47.6566 97.1886 47.5088 97.1242C47.325 97.0445 47.1431 96.9611 46.9612 96.8815C46.6902 96.7602 46.4192 96.6408 46.1445 96.5289C45.5116 96.2711 44.8806 96.0038 44.2402 95.7669C43.7589 95.5906 43.2795 95.4143 42.7982 95.2361C42.5557 95.147 42.315 95.0484 42.0687 94.9688C41.7333 94.8588 41.3961 94.7489 41.0588 94.6389C40.8011 94.5536 40.5434 94.4683 40.2857 94.3849C40.2232 94.366 40.1625 94.3432 40.1019 94.3224C40.0469 94.2977 39.9882 94.2807 39.9313 94.2674C39.7779 94.2181 39.6244 94.1669 39.4709 94.1176C39.1469 94.0115 38.8115 93.93 38.4818 93.8428C38.1313 93.6835 37.7788 93.5243 37.4283 93.3688C37.1971 93.2286 36.9678 93.0883 36.7367 92.9461C36.3084 92.6864 35.8783 92.4305 35.4463 92.1803C35.4501 91.5225 35.4539 90.8628 35.4577 90.205C35.4785 86.5425 35.5145 82.8763 35.5145 79.2082C35.5145 78.6831 35.8669 78.2282 36.3785 78.1315C36.6552 77.9381 37.0209 77.885 37.362 78.0045C41.4529 79.4907 45.5344 81.0262 49.6215 82.5389C53.9872 84.1502 58.351 85.7786 62.7205 87.3861C67.1051 88.9936 71.4821 90.6258 75.863 92.2447C80.1851 93.8447 84.5015 95.4484 88.8236 97.0502C92.2002 98.3033 95.5768 99.5601 98.9553 100.813C99.122 100.874 99.285 100.933 99.3153 100.952C99.357 100.963 99.4025 100.982 99.4498 100.993C99.4896 101.005 99.5294 101.024 99.5635 101.041C103.708 99.4691 107.855 97.9165 112.001 96.3507C116.354 94.7072 120.71 93.0693 125.068 91.4258C129.274 89.841 133.481 88.2562 137.691 86.6752C142.002 85.0488 146.311 83.4223 150.622 81.8034C152.511 81.0925 154.398 80.3816 156.289 79.6783C157.189 79.3409 158.085 79.0035 158.982 78.6661C159.372 78.522 159.764 78.3703 160.151 78.2263C160.346 78.1542 160.543 78.0632 160.742 78.0026C161.212 77.8225 161.682 77.6348 162.155 77.4718C162.639 77.3031 163.165 77.5002 163.421 77.9249C163.506 77.9666 163.588 78.0215 163.658 78.0917C163.832 78.2604 163.967 78.4405 164.02 78.6869C164.05 78.831 164.041 78.9769 164.045 79.121C164.05 79.375 164.054 79.6328 164.06 79.8869C164.065 80.4461 164.075 81.0053 164.084 81.5645C164.105 82.7531 164.122 83.9436 164.143 85.1303C164.179 87.2345 164.215 89.333 164.245 91.4334C163.931 91.5699 163.614 91.7063 163.298 91.839C162.572 92.1442 161.862 92.4968 161.125 92.7736C160.755 92.9139 160.382 93.0447 160.012 93.1869C159.66 93.3233 159.313 93.4807 158.963 93.6248C158.614 93.7688 158.267 93.911 157.922 94.0608C157.735 94.1442 157.543 94.2276 157.356 94.3129C157.261 94.3546 157.168 94.3982 157.072 94.4399C157.005 94.4702 156.935 94.4987 156.867 94.5309C156.801 94.5593 156.736 94.5915 156.67 94.6219C156.7 94.6086 156.729 94.5953 156.759 94.5821C156.441 94.7261 156.122 94.8702 155.804 95.0162C155.804 95.0162 155.803 95.0162 155.802 95.0162H155.8C154.805 95.4616 153.801 95.8749 152.784 96.2654C152.397 96.4095 152.009 96.5498 151.622 96.6938C151.611 96.6976 151.599 96.7014 151.588 96.7052C151.582 96.7071 151.577 96.7109 151.571 96.7128C151.243 96.8265 150.915 96.9422 150.589 97.0559C150.622 97.0445 150.656 97.0332 150.686 97.0237C150.053 97.2379 149.43 97.4786 148.806 97.7232C148.528 97.8331 148.247 97.9412 147.969 98.053C147.838 98.1042 147.709 98.163 147.577 98.2085C147.34 98.2161 147.109 98.3317 146.968 98.5421C146.847 98.7222 146.815 98.9402 146.862 99.1411C144.823 100.023 142.783 100.904 140.744 101.786C136.501 103.617 132.261 105.444 128.014 107.275C123.882 109.065 119.745 110.847 115.607 112.623C113.953 113.334 112.297 114.049 110.641 114.76C110.328 114.894 110.015 115.029 109.701 115.163C109.455 115.165 109.218 115.304 108.994 115.414C108.77 115.523 108.547 115.63 108.323 115.738C107.872 115.954 107.425 116.177 106.986 116.411C106.739 116.541 106.493 116.672 106.248 116.807C106.133 116.856 106.017 116.905 105.902 116.955C105.887 116.96 105.873 116.966 105.856 116.974C105.782 116.97 105.707 116.979 105.633 117.002C105.439 117.059 105.254 117.137 105.07 117.22C104.662 117.374 104.249 117.512 103.842 117.662C103.239 117.882 102.648 118.124 102.067 118.397C101.629 118.606 101.199 118.83 100.771 119.059C100.227 118.824 99.662 118.627 99.0936 118.46L99.0974 118.464Z" fill="#0073C6"/>
<path d="M75.9087 199.778C75.4615 199.748 74.8609 199.773 74.3758 199.646C74.2792 199.67 74.1806 199.687 74.0821 199.687C73.9078 199.687 73.7297 199.64 73.5762 199.537C73.561 199.526 73.5478 199.513 73.5307 199.501C73.5137 199.49 73.4928 199.477 73.472 199.465C73.4682 199.465 73.4682 199.46 73.4663 199.46C73.4606 199.454 73.4549 199.454 73.4511 199.448H73.4473C73.3166 199.363 73.1877 199.274 73.0551 199.183C73.0229 199.164 72.9888 199.141 72.9566 199.117C72.4166 198.747 71.8765 198.387 71.3365 198.019C71.31 198 71.2815 197.983 71.2588 197.964C71.2342 197.953 71.2133 197.936 71.1925 197.922C71.1641 197.903 71.1375 197.886 71.111 197.867C70.1712 197.229 69.2276 196.584 68.2858 195.945C68.2612 195.934 68.2366 195.917 68.2157 195.898C68.0528 195.79 67.8917 195.682 67.7723 195.596C67.562 195.458 67.3536 195.312 67.1451 195.174C67.13 195.162 67.1186 195.157 67.1035 195.145C66.9462 195.037 66.7813 194.927 66.6392 194.832C66.3683 194.647 66.0992 194.467 65.8282 194.285C65.7998 194.267 65.7733 194.249 65.7468 194.226C65.6198 194.14 65.4928 194.057 65.3678 193.972C65.3678 193.972 65.3672 193.97 65.3659 193.966C65.328 193.941 65.2882 193.917 65.2522 193.886C65.1802 193.839 65.1063 193.79 65.0305 193.737C65.0021 193.725 64.9756 193.701 64.949 193.682C64.8429 193.61 64.7406 193.543 64.6364 193.471C64.608 193.452 64.5795 193.435 64.5511 193.411C64.4962 193.375 64.4431 193.337 64.4336 193.331C64.4014 193.312 64.3673 193.289 64.337 193.265C64.3162 193.253 64.2991 193.24 64.2802 193.229C63.2513 192.531 62.2186 191.833 61.1897 191.134C61.1575 191.115 61.131 191.098 61.1006 191.073C60.5833 190.724 60.0642 190.368 59.5715 190.033C59.1812 189.767 58.7889 189.502 58.4441 189.269C58.0443 188.998 57.6426 188.726 57.2882 188.491C55.8292 187.498 54.3626 186.505 53.023 185.595C52.6971 185.371 52.3636 185.151 52.0528 184.933C51.6795 184.679 51.3006 184.421 50.9481 184.186C50.6222 183.963 50.2963 183.739 50.0273 183.559C48.9188 182.806 47.8103 182.056 46.7303 181.32C46.446 181.127 46.1637 180.933 45.997 180.82C45.7734 180.67 45.5441 180.513 45.3186 180.363L45.2466 180.315C45.059 180.188 44.8733 180.061 44.7312 179.959C44.6043 179.876 44.4773 179.792 44.4053 179.743C44.3485 179.701 44.2878 179.665 44.2386 179.629C44.2329 179.623 44.2234 179.616 44.2177 179.61C44.1855 179.591 44.1514 179.569 44.1476 179.569C44.068 179.514 43.9884 179.46 43.9335 179.419C43.9032 179.4 43.8747 179.383 43.8463 179.358C43.6966 179.273 43.5583 179.165 43.4465 179.087C43.3385 179.021 43.2305 178.947 43.1282 178.869C43.0713 178.833 43.0183 178.797 42.9633 178.761L42.9539 178.755C42.9539 178.755 42.933 178.738 42.9216 178.731C42.916 178.725 42.9065 178.719 42.9008 178.712V178.717L42.897 178.712C42.8572 178.687 42.8174 178.657 42.8042 178.653C42.7378 178.604 42.6677 178.562 42.6052 178.515H42.6033L42.5313 178.465C42.5048 178.448 42.4745 178.429 42.4441 178.406L42.4385 178.401C42.4025 178.382 42.3703 178.359 42.3456 178.34C42.3343 178.329 42.3248 178.323 42.3134 178.315L42.2717 178.285C42.2319 178.26 42.1921 178.238 42.158 178.207L41.9932 178.099C41.9344 178.056 41.8776 178.02 41.8226 177.978C41.7033 177.912 41.5915 177.828 41.5252 177.779C41.5043 177.768 41.4854 177.749 41.4645 177.737L41.4532 177.732C41.3546 177.665 41.2561 177.593 41.1708 177.538C41.1519 177.527 41.1348 177.514 41.114 177.502C41.0931 177.485 41.0742 177.478 41.0742 177.474C40.8392 177.316 40.6062 177.161 40.411 177.021C40.303 176.949 40.195 176.877 40.0927 176.805C39.0486 176.094 38.0008 175.385 36.9757 174.687C36.8999 174.632 36.826 174.585 36.7521 174.53L36.6914 174.494C36.6554 174.469 36.6157 174.439 36.5815 174.414H36.5759C36.4773 174.342 36.3788 174.274 36.2746 174.209C36.2424 174.185 36.2083 174.168 36.178 174.143L36.1685 174.137C36.1192 174.101 36.0624 174.065 36.0396 174.054C36.0302 174.043 36.0188 174.035 36.0074 174.029C35.9809 174.012 35.9506 173.988 35.9449 173.982C35.9146 173.963 35.8861 173.94 35.8729 173.933C35.8312 173.908 35.7895 173.878 35.7497 173.849C35.7402 173.844 35.7346 173.836 35.7289 173.836C35.7289 173.83 35.727 173.83 35.727 173.83H35.7232C35.7232 173.83 35.7213 173.825 35.7175 173.825C35.6853 173.808 35.655 173.789 35.6247 173.766C35.4541 173.633 35.3366 173.453 35.2722 173.258C35.1358 173.091 35.0581 172.886 35.0581 172.668C35.0789 168.303 35.0998 163.944 35.1206 159.579C35.1453 154.798 35.1699 150.017 35.1907 145.23C35.2116 140.569 35.2362 135.904 35.2571 131.242C35.2817 126.746 35.3025 122.253 35.3253 117.755C35.3537 113.053 35.3745 108.337 35.4011 103.63C35.4068 102.46 35.4124 101.293 35.4181 100.123C37.5744 101.005 39.7289 101.888 41.8852 102.771C44.2537 103.744 46.6241 104.714 48.9946 105.683C48.9908 106.921 48.987 108.159 48.9832 109.397C48.9737 111.563 48.9624 113.73 48.9529 115.899C48.9434 116.979 48.9283 118.056 48.9226 119.133C52.644 121.108 56.3636 123.089 60.0831 125.068C63.958 127.129 67.8235 129.193 71.6908 131.263C73.2541 132.101 74.8268 132.931 76.3862 133.781L76.4488 133.817C76.4677 133.822 76.481 133.836 76.4999 133.841C76.4999 133.847 76.498 133.847 76.498 133.847C76.6951 133.98 76.8467 134.16 76.9281 134.372C77.0816 134.546 77.1745 134.768 77.1745 135.011C77.1745 139.502 77.201 144 77.2162 148.493C77.2275 153.061 77.2427 157.632 77.2578 162.202C77.2692 166.85 77.2863 171.493 77.2976 176.139C77.3033 180.657 77.3166 185.166 77.3261 189.682C77.328 191.644 77.3317 193.613 77.3374 195.583C77.3393 196.214 77.3393 196.847 77.3393 197.473C77.3431 197.816 77.3488 198.159 77.3431 198.358C77.3431 198.525 77.3071 198.682 77.237 198.827C77.1915 199.39 76.6723 199.79 76.1172 199.79C76.0527 199.79 75.9864 199.784 75.922 199.773L75.9087 199.778Z" fill="#0073C6"/>
<path d="M126.203 199.991C125.193 199.816 124.069 199.996 123.143 199.558C122.993 199.445 122.878 199.293 122.802 199.124C122.555 198.938 122.392 198.643 122.385 198.319V198.294C122.383 193.71 122.383 189.136 122.379 184.552V157.018C122.379 152.552 122.379 148.072 122.385 143.598C122.385 140.914 122.391 138.234 122.391 135.547C122.391 135.511 122.392 135.475 122.396 135.439C122.381 135.367 122.372 135.291 122.372 135.219C122.372 134.833 122.588 134.457 122.946 134.272C126.741 132.249 130.561 130.279 134.372 128.285C138.392 126.185 142.413 124.077 146.436 121.982C147.984 121.169 149.521 120.338 150.963 119.626C150.98 119.614 151.001 119.601 151.021 119.597C151.08 115.419 151.124 111.235 151.175 107.048C151.188 105.975 151.203 104.9 151.218 103.827C153.746 102.754 156.274 101.683 158.802 100.61C160.653 99.8236 162.504 99.035 164.357 98.2521C164.399 100.804 164.441 103.357 164.482 105.911C164.554 110.53 164.63 115.154 164.706 119.777C164.782 124.367 164.856 128.962 164.929 133.549C165.005 138.065 165.07 142.586 165.147 147.103C165.223 151.632 165.291 156.167 165.361 160.692C165.418 164.329 165.475 167.965 165.536 171.603C165.538 171.789 165.541 171.975 165.541 172.162C165.541 172.312 165.502 172.458 165.433 172.585C165.445 172.742 165.428 172.892 165.373 173.042C165.229 173.44 164.856 173.645 164.524 173.866C164.115 174.149 163.702 174.431 163.294 174.716C162.358 175.366 161.422 176.01 160.486 176.647C158.61 177.942 156.738 179.224 154.868 180.518C151.137 183.108 147.387 185.673 143.647 188.245C140.011 190.744 136.372 193.242 132.738 195.742C131.491 196.597 130.243 197.458 128.994 198.313C128.655 198.548 128.312 198.777 127.976 199.012C127.753 199.164 127.533 199.338 127.323 199.458L127.194 199.549C127.183 199.555 127.169 199.566 127.154 199.574C126.987 199.824 126.707 200 126.326 200C126.286 200 126.247 200 126.203 199.994V199.991Z" fill="#0073C6"/>
<path d="M196.59 38.9158C196.933 47.4975 195.425 56.2516 191.679 64.0125C188.147 71.4549 181.879 77.0604 175.804 82.4308C174.715 83.3881 173.595 84.3151 172.606 85.3804C172.365 85.6515 172.052 85.8145 171.685 85.7975C171.639 85.7975 171.594 85.7918 171.548 85.7842C171.152 85.8942 170.703 85.7975 170.44 85.3691C170.121 84.7605 170.169 84.0383 170.101 83.3634C170.002 81.0697 169.85 78.757 169.534 76.4822C168.85 70.2928 165.941 64.5679 161.949 59.8989C161.64 59.5368 161.627 59.1293 161.784 58.8032C161.786 58.5852 161.869 58.3577 162.055 58.1397C171.755 49.2282 178.269 41.3536 175.243 27.3541C174.311 24.213 173.113 21.2595 171.488 18.4521C168.553 13.8646 165.11 9.8647 161.811 5.58239C158.775 2.21379 159.012 0.037566 164.026 0.187324C167.094 0.445134 169.737 2.24602 172.337 3.7398C174.112 4.79 175.88 5.85347 177.549 7.06669C188.043 14.3309 195.632 26.084 196.594 38.9158H196.59Z" fill="#0073C6"/>
<path d="M35.89 0.00726984C40.9057 -0.142488 41.1463 2.03374 38.1089 5.40233C34.8062 9.68464 31.3633 13.6864 28.4263 18.272C26.8024 21.0814 25.6049 24.0348 24.6745 27.1741C21.6466 41.1754 28.1591 49.0481 37.8588 57.9616C38.0445 58.172 38.1278 58.4014 38.1297 58.6175C38.2889 58.9492 38.2775 59.3587 37.963 59.7207C33.9725 64.3917 31.062 70.1128 30.3837 76.3078C30.0653 78.5769 29.9138 80.8896 29.819 83.1834C29.747 83.8582 29.7944 84.5805 29.476 85.189C29.2771 85.5094 28.9758 85.6478 28.6689 85.6478C28.5665 85.6478 28.4642 85.6288 28.3638 85.6061C28.3183 85.6117 28.2747 85.6174 28.2274 85.6174C28.2122 85.6231 28.1951 85.6231 28.18 85.6231C27.8351 85.6231 27.5414 85.4601 27.3103 85.2004C26.3193 84.135 25.1975 83.208 24.1118 82.2507C18.037 76.8803 11.7651 71.2748 8.23122 63.8324C4.48704 56.0716 2.97876 47.3174 3.31983 38.7376C4.2824 25.9059 11.875 14.1527 22.3648 6.88664C24.0379 5.67341 25.802 4.61184 27.5793 3.56164C30.1809 2.06786 32.8223 0.26508 35.8881 0.00916555L35.89 0.00726984Z" fill="#0073C6"/>
<path d="M160.397 70.799C160.499 71.0644 160.484 71.3525 160.376 71.6066C160.312 71.9686 160.064 72.3004 159.694 72.4198C159.241 72.5752 158.802 72.7629 158.358 72.924C157.43 73.2747 156.501 73.6235 155.575 73.978C153.528 74.7477 151.482 75.5192 149.434 76.2907C145.18 77.8926 140.916 79.4944 136.659 81.0963C132.412 82.6867 128.17 84.281 123.924 85.8771C122.214 86.516 120.505 87.1586 118.792 87.805C117.998 88.0988 117.201 88.4003 116.407 88.696C116.079 88.8211 115.755 88.9424 115.427 89.0618C115.262 89.1282 115.096 89.1642 114.925 89.1642C114.828 89.1642 114.73 89.1528 114.631 89.1225C114.521 89.0922 114.413 89.0372 114.321 88.9652C113.752 88.9159 113.36 88.4306 113.36 87.8695C113.36 83.5227 113.364 79.174 113.366 74.8254C113.367 70.3175 113.375 65.8058 113.384 61.296C113.386 56.8526 113.396 52.4091 113.4 47.9638C113.405 44.345 113.419 40.7148 113.42 37.0903V36.5936C113.42 36.4078 113.477 36.2315 113.574 36.0856C113.574 36.0344 113.574 35.9756 113.58 35.9187C113.858 34.5785 115.251 35.0998 116.168 35.3804C132.217 40.474 151.382 52.0111 158.91 67.5764C159.457 68.6304 159.98 69.69 160.397 70.7971V70.799Z" fill="#0073C6"/>
<path d="M86.2508 74.2681C86.2527 78.6149 86.2565 82.9635 86.2565 87.3122C86.2565 87.8714 85.8643 88.3529 85.2978 88.4079C85.2011 88.4742 85.0969 88.533 84.9851 88.5633C84.8866 88.5936 84.788 88.605 84.6895 88.605C84.519 88.605 84.3503 88.569 84.1874 88.5026C83.8615 88.3813 83.5356 88.26 83.2077 88.133C82.4138 87.8392 81.6161 87.5378 80.8222 87.242C79.1092 86.5994 77.402 85.9549 75.691 85.316C71.4447 83.7218 67.2021 82.1256 62.9558 80.5352C58.6981 78.9333 54.4367 77.3315 50.1771 75.7297C48.1307 74.96 46.0843 74.1885 44.0378 73.4169C43.1094 73.0625 42.1809 72.7118 41.2506 72.363C40.8072 72.1999 40.3695 72.0123 39.9166 71.8568C39.5471 71.7355 39.3008 71.4056 39.2364 71.036C39.1283 70.7895 39.1132 70.5014 39.2155 70.2379C39.6305 69.1289 40.1553 68.0674 40.7011 67.021C48.2292 51.45 67.3973 39.9148 83.4427 34.8231C84.3617 34.5425 85.7525 34.0193 86.031 35.3577C86.0367 35.4145 86.0367 35.4714 86.0367 35.5226C86.1334 35.6704 86.1902 35.8448 86.1902 36.0325V36.5273C86.1921 40.1518 86.2054 43.7801 86.2111 47.4027C86.2129 51.8462 86.2205 56.2896 86.2262 60.733C86.2357 65.2428 86.2414 69.7526 86.2452 74.2624L86.2508 74.2681Z" fill="#0073C6"/>
<path d="M107.641 33.0696C107.668 33.8013 107.647 34.5387 107.647 35.2705V38.4495C107.647 40.7148 107.647 42.9801 107.645 45.2454C107.643 49.8159 107.643 54.3863 107.639 58.9549C107.639 63.5803 107.632 68.2039 107.628 72.8274C107.626 77.3675 107.622 81.9133 107.617 86.4553C107.615 87.0638 107.615 87.678 107.615 88.2865V89.0808C107.615 89.4429 107.647 89.7974 107.501 90.1348C107.501 90.1405 107.499 90.1405 107.499 90.1405C107.598 90.5689 107.423 91.039 107.037 91.2798C105.997 91.9167 104.951 92.5366 103.903 93.1641C103.213 93.5736 102.523 93.9887 101.834 94.3982C101.61 94.5252 101.394 94.6579 101.174 94.7906C101.04 94.8683 100.901 94.9593 100.761 95.0199C100.699 95.0446 100.634 95.0692 100.568 95.0806C100.492 95.0996 100.414 95.1109 100.341 95.1109H100.295C100.28 95.1109 100.267 95.1109 100.253 95.1052C100.212 95.1109 100.178 95.1166 100.138 95.1166C99.9938 95.1166 99.8498 95.0806 99.7134 95.0143H99.7115C99.6907 95.0029 99.6698 94.9896 99.649 94.9782C97.6613 93.911 95.6433 92.8949 93.6651 91.822C93.5893 91.7802 93.5154 91.7367 93.4377 91.6949C93.163 91.5319 93.0019 91.2514 92.9621 90.9481C92.8522 90.7737 92.7954 90.5689 92.7916 90.3395C92.7897 90.2258 92.7897 90.1102 92.7859 89.9964C92.7821 89.5509 92.7764 89.1055 92.7745 88.6543C92.7651 87.5283 92.7537 86.3966 92.7442 85.2648C92.7234 83.0299 92.7025 80.7911 92.6817 78.5504C92.64 73.9648 92.6002 69.3811 92.5604 64.7917C92.5206 60.2876 92.4808 55.7854 92.4467 51.2812C92.4069 46.8264 92.3691 42.3659 92.3368 37.9092C92.3274 36.5349 92.3084 35.1605 92.3084 33.788C91.7343 32.7435 93.3013 31.9341 94.0422 31.3445C96.1568 29.7996 98.838 28.8745 101.466 29.2214C102.692 29.2233 107.092 31.0431 107.579 32.7416C107.617 32.844 107.645 32.9558 107.655 33.0734L107.641 33.0696Z" fill="#FFDE00"/>
<path d="M108.915 141.431C108.915 145.708 108.924 149.983 108.907 154.263C108.903 154.625 108.907 154.991 108.903 155.221C108.903 155.672 108.668 156.076 108.28 156.244C107.816 156.792 107.342 157.329 106.876 157.869C106.145 158.712 105.417 159.554 104.687 160.405C103.484 161.795 102.277 163.186 101.066 164.57C101.04 164.6 101.011 164.631 100.989 164.661C100.983 164.667 100.979 164.672 100.979 164.672C100.977 164.672 100.974 164.678 100.97 164.678C100.949 164.708 100.924 164.733 100.913 164.744C100.902 164.758 100.892 164.769 100.888 164.769C100.813 164.847 100.729 164.907 100.638 164.955C100.636 164.955 100.636 164.96 100.633 164.96C100.443 165.124 100.199 165.213 99.9485 165.213H99.9163C99.6207 165.207 99.3838 165.074 99.1849 164.881C99.1811 164.881 99.1792 164.875 99.1754 164.875C99.1735 164.869 99.1697 164.87 99.1659 164.864C99.0087 164.714 98.8514 164.568 98.7964 164.513C98.7358 164.458 98.6733 164.399 98.6335 164.363C98.607 164.333 98.5766 164.308 98.4592 164.195C98.3966 164.136 98.3322 164.075 98.3 164.045C98.281 164.028 98.2602 164.009 98.2564 164.003C98.2394 163.992 98.2242 163.975 98.2071 163.961C98.1977 163.95 98.1863 163.937 98.1768 163.933C98.1313 163.891 98.0897 163.852 98.048 163.81H98.0442C98.0442 163.81 98.0442 163.808 98.0423 163.808C98.012 163.778 97.9817 163.745 97.9665 163.734C97.9362 163.704 97.9097 163.679 97.8812 163.656C97.8054 163.584 97.7334 163.512 97.6633 163.446C97.6273 163.416 97.5913 163.38 97.5553 163.343H97.5515C97.5515 163.343 97.5459 163.338 97.5421 163.33C97.4644 163.258 97.3886 163.186 97.3298 163.133C97.2503 163.061 97.1688 162.983 97.1063 162.923C97.0096 162.834 96.913 162.741 96.8315 162.663C96.7216 162.555 96.6079 162.453 96.6003 162.447C96.5075 162.358 96.4109 162.267 96.337 162.193L96.3161 162.176C95.0731 161 93.8358 159.827 92.6003 158.64C92.39 158.436 92.1778 158.237 91.9675 158.039C91.8784 157.947 91.7799 157.865 91.706 157.785C91.615 157.7 91.5487 157.592 91.5032 157.473C91.5013 157.473 91.4976 157.467 91.4938 157.467C91.3005 157.243 91.2304 156.989 91.2266 156.701C91.2001 152.36 91.1773 148.013 91.1489 143.67C91.1243 139.155 91.094 134.639 91.0731 130.124C91.0617 127.434 91.0485 124.744 91.0371 122.056C91.1034 122.084 91.1697 122.111 91.2342 122.137C93.9267 123.248 96.6212 124.357 99.3118 125.474C99.3232 125.479 99.3365 125.485 99.3497 125.491C99.4407 125.527 99.5297 125.567 99.6207 125.603C99.7041 125.637 99.7893 125.652 99.8765 125.652C100.091 125.652 100.301 125.551 100.445 125.394C100.481 125.379 100.515 125.362 100.551 125.349C102.626 124.452 104.701 123.553 106.776 122.655C107.48 122.35 108.183 122.046 108.888 121.741C108.892 123.811 108.902 125.881 108.905 127.951C108.911 132.444 108.907 136.935 108.911 141.431H108.915Z" fill="#FFDE00"/>
<path d="M164.355 91.3954C164.361 91.6665 164.128 91.8902 163.863 91.8921H163.853C163.823 91.9205 163.787 91.9452 163.749 91.9641H163.743C163.482 92.0816 163.219 92.1954 163.014 92.2826C162.642 92.4456 162.271 92.6086 161.9 92.7736C161.871 92.7849 161.843 92.7982 161.813 92.8096C161.752 92.838 161.689 92.8646 161.686 92.8646C159.114 93.9887 156.543 95.1071 153.972 96.2275C151.302 97.3895 148.632 98.5516 145.962 99.7136C145.941 99.7212 145.921 99.7307 145.915 99.7325C145.212 100.04 144.511 100.345 143.867 100.624C141.238 101.776 138.601 102.915 135.969 104.06C133.47 105.147 130.97 106.235 128.471 107.321C128.007 107.524 127.539 107.725 127.133 107.903C126.442 108.206 125.748 108.508 125.114 108.781C122.501 109.929 119.878 111.059 117.261 112.197C115.236 113.078 113.21 113.963 111.241 114.813C110.688 115.057 110.133 115.296 109.635 115.512C107.126 116.613 104.611 117.698 102.099 118.79C101.366 119.108 100.632 119.429 99.899 119.745V119.743C99.882 119.753 99.8649 119.76 99.8478 119.768C99.8478 119.768 99.8441 119.768 99.8422 119.77C99.7891 119.792 99.7323 119.802 99.6773 119.802C99.5106 119.802 99.3457 119.709 99.2586 119.571C99.1922 119.55 99.1259 119.521 99.0577 119.493C98.9308 119.438 98.8038 119.387 98.6749 119.332C98.368 119.201 98.061 119.072 97.7541 118.941C97.125 118.676 96.494 118.409 95.863 118.141C94.6011 117.607 93.3391 117.074 92.0772 116.54C89.4282 115.419 86.7811 114.297 84.1321 113.177C81.5438 112.081 78.9555 110.985 76.3671 109.89C73.8167 108.809 71.2663 107.732 68.7177 106.652C66.2203 105.594 63.7248 104.538 61.2274 103.482C58.6391 102.385 56.0489 101.291 53.4605 100.195C50.8987 99.1108 48.3369 98.0265 45.7751 96.9421C43.2152 95.8578 40.6572 94.7754 38.0973 93.6911C37.4492 93.4162 36.7936 93.1527 36.1513 92.8665C36.1475 92.8646 36.1437 92.8627 36.1399 92.8608C36.1323 92.8589 36.1248 92.8551 36.1172 92.8513C36.1134 92.8494 36.1096 92.8475 36.1039 92.8456C36.0376 92.8172 35.9713 92.7868 35.905 92.7603C35.8083 92.7205 35.7306 92.656 35.6738 92.5764C35.5165 92.4911 35.4199 92.3243 35.4199 92.1764C35.4199 92.057 35.4199 91.9376 35.418 91.8864C35.418 91.7082 35.4142 91.53 35.4123 91.3689C35.4123 91.3461 35.4123 91.3234 35.4123 91.3025V91.2608C35.4123 91.1376 35.4104 91.0144 35.4085 90.9594V90.8703C35.4085 90.7774 35.4066 90.6864 35.4066 90.6618C35.3858 88.6107 35.3725 86.5596 35.3574 84.5104C35.3441 82.7682 35.3327 81.0242 35.3232 79.2821C35.3232 79.2271 35.3346 79.1722 35.3555 79.1248C35.4407 78.2092 36.5075 77.5552 37.3867 77.8376C37.4379 77.8338 37.4909 77.8376 37.544 77.8528C37.6387 77.8774 37.7316 77.921 37.8225 77.9551L38.3284 78.1409C38.8533 78.3343 39.3782 78.5257 39.903 78.7191C41.1707 79.1854 42.4402 79.6518 43.7079 80.1181C46.209 81.0375 48.7102 81.9588 51.2133 82.8782C53.7372 83.8071 56.2611 84.7359 58.785 85.6629C61.3468 86.6051 63.9067 87.5472 66.4685 88.4913C69.1061 89.4618 71.7437 90.4324 74.3813 91.4049C76.9147 92.3376 79.4462 93.2721 81.9796 94.2029C84.5376 95.1431 87.0975 96.0872 89.6575 97.0312C92.3026 98.0075 94.9478 98.98 97.593 99.9543C98.3813 100.246 99.1695 100.536 99.9559 100.826C99.9559 100.826 99.9596 100.826 99.9615 100.828C100.011 100.809 100.06 100.79 100.109 100.771C100.378 100.669 100.647 100.567 100.917 100.466C101.536 100.233 102.154 99.9998 102.772 99.7667C104.022 99.2928 105.271 98.8207 106.521 98.3487C109.032 97.4009 111.545 96.4549 114.053 95.5052C116.653 94.5233 119.253 93.5432 121.851 92.5631C124.405 91.6001 126.957 90.6371 129.511 89.6742C132.085 88.7036 134.656 87.733 137.229 86.7624C139.785 85.7975 142.343 84.8345 144.899 83.8696C147.471 82.899 150.044 81.9323 152.617 80.9598C155.111 80.0176 157.606 79.0793 160.102 78.1371C160.818 77.866 161.534 77.5969 162.248 77.3277C162.373 77.2803 162.5 77.267 162.627 77.3163C162.678 77.3353 162.724 77.3637 162.768 77.3978C162.851 77.4054 162.929 77.4225 162.999 77.4471C163.327 77.5267 163.7 77.904 163.853 78.302C163.952 78.393 164.016 78.5219 164.016 78.6641C164.016 78.7911 164.022 78.9181 164.028 79.0433C164.041 79.4338 164.052 79.8243 164.062 80.2167C164.092 81.2403 164.12 82.2659 164.147 83.2914C164.204 85.3862 164.259 87.479 164.314 89.5737C164.329 90.1803 164.346 90.7869 164.359 91.3935L164.355 91.3954Z" fill="#FFDE00"/>
</svg>
