<?xml version="1.0" encoding="UTF-8"?>
<svg id="Layer_2" data-name="Layer 2" xmlns="http://www.w3.org/2000/svg" viewBox="0 0 477.56 353.06">
  <defs>
    <style>
      .cls-1 {
        fill: #231f20;
      }
    </style>
  </defs>
  <g id="Layer_2-2" data-name="Layer 2">
    <path class="cls-1" d="M215.31,42.42l-38.34,44.95L75.81,0l22.24,140.67s-9.18-3.71-24.56-3.63c0,.25,96.48,92.02,96.48,92.02l5.95-12.22,52.91,49.16v-44.03s-24.89-20.86-34.89-31.09c-10-10.22-18.69-25.56-18.69-25.56,0,0-1.98,2.72-1.98,7.59,0,14.51,13.72,33.06,16.95,36.28-20.42-17.15-81.85-70.17-81.85-70.17l-15.46-113.7,83.75,72.97-14.06,12.04-45.56-39.41,6.28,59.04,34.48,29.52s21.83-40.48,50.43-48.98c.08,0-5.95-4.78-5.95-4.78l12.99-63.29Z"/>
    <path class="cls-1" d="M260.02,42.42l38.34,44.95L399.52,0l-22.24,140.67s9.18-3.71,24.56-3.63c0,.25-96.48,92.02-96.48,92.02l-5.95-12.22-52.91,49.16v-44.03s24.89-20.86,34.89-31.09c10-10.22,18.69-25.56,18.69-25.56,0,0,1.98,2.72,1.98,7.59,0,14.51-13.72,33.06-16.95,36.28,20.42-17.15,81.85-70.17,81.85-70.17l15.46-113.7-83.75,72.97,14.06,12.04,45.56-39.41-6.28,59.04-34.48,29.52s-21.83-40.48-50.43-48.98c-.08,0,5.95-4.78,5.95-4.78l-12.99-63.29Z"/>
    <path class="cls-1" d="M237.61,120.93c-20.68,0-37.45,16.72-37.45,37.35s16.77,37.35,37.45,37.35,37.45-16.72,37.45-37.35-16.77-37.35-37.45-37.35ZM237.61,181.35c-12.77,0-23.12-10.33-23.12-23.06s10.35-23.06,23.12-23.06c5.28,0,10.14,1.79,14.03,4.76l-8.63,12.13,16.29-1.78c.92,2.48,1.44,5.15,1.44,7.96,0,12.74-10.35,23.06-23.12,23.06Z"/>
    <g>
      <path class="cls-1" d="M43.94,280.6H11.01c-6.08,0-11.01,4.91-11.01,10.98v50.5c0,6.06,4.93,10.98,11.01,10.98h32.94c6.08,0,11.01-4.91,11.01-10.98v-50.5c0-6.06-4.93-10.98-11.01-10.98ZM39.77,338.7H15.18v-43.74h24.59v43.74Z"/>
      <polygon class="cls-1" points="101.39 323.69 81.66 280.6 59.71 280.6 63.62 287.41 63.62 353.06 78.94 353.06 78.63 308.62 99.03 353.06 115.58 353.06 115.58 280.6 100.58 280.6 101.39 323.69"/>
      <path class="cls-1" d="M405.92,280.6h-30.81c-6.08,0-11.01,4.91-11.01,10.98v50.5c0,6.06,4.93,10.98,11.01,10.98h30.81c6.08,0,11.01-4.91,11.01-10.98v-50.5c0-6.06-4.93-10.98-11.01-10.98ZM402.34,338.7h-23.64v-43.74h23.64v43.74Z"/>
      <polygon class="cls-1" points="462.55 280.6 463.36 323.69 443.64 280.6 421.69 280.6 425.6 287.41 425.6 353.06 440.91 353.06 440.61 308.62 461 353.06 477.56 353.06 477.56 280.6 462.55 280.6"/>
      <polygon class="cls-1" points="124.14 280.6 124.14 353.06 170.93 353.06 170.93 338.7 139.89 338.7 139.89 322.36 160.54 322.36 166.56 309.32 139.89 309.32 139.89 294.96 170.93 294.96 170.93 280.6 124.14 280.6"/>
      <rect class="cls-1" x="255.35" y="280.6" width="15.34" height="72.46"/>
      <rect class="cls-1" x="340.43" y="280.6" width="15.34" height="72.46"/>
      <polygon class="cls-1" points="220.14 337.96 208.19 280.6 190.88 280.6 210.5 353.06 229.77 353.06 249.39 280.6 232.08 280.6 220.14 337.96"/>
      <path class="cls-1" d="M323.45,294.96l7.86-14.36h-42.85c-4.74,0-8.59,3.83-8.59,8.57v23.41l36.8,16.57v9.56h-33.46l-4.78,14.36h44.29c4.74,0,8.59-3.83,8.59-8.57v-25.51l-36.8-16.71v-7.32h28.94Z"/>
    </g>
  </g>
</svg>